<svg id="Layer_1" data-name="Layer 1" xmlns="http://www.w3.org/2000/svg" viewBox="0 0 1000 1000"><defs><style>.cls-1{stroke:#000;stroke-miterlimit:10;}</style></defs><title>aqilifyArtboard 1</title><path class="cls-1" d="M567.84,313.79l96,186.71H550a49.69,49.69,0,0,0-49.69,49.69h0A49.69,49.69,0,0,0,550,599.88H713.61L801,774.19a44.71,44.71,0,0,0,40,24.69h0c33.25,0,54.86-35,40-64.73L631.55,236.29a65.94,65.94,0,0,0-59-36.41h-121a66,66,0,0,0-56.53,32l-280.78,467,50,100,343.1,1.25-50-101L327.78,700A48.7,48.7,0,0,1,293,685.72h0a48.73,48.73,0,0,1-8.48-57.49L462.94,312.86a26.31,26.31,0,0,1,22.91-13.36h58.58A26.31,26.31,0,0,1,567.84,313.79Z"/></svg>